<?xml version="1.0"?>
<svg xmlns="http://www.w3.org/2000/svg" xmlns:xlink="http://www.w3.org/1999/xlink" xmlns:svgjs="http://svgjs.com/svgjs" version="1.1" width="512" height="512" x="0" y="0" viewBox="0 0 512 512" style="enable-background:new 0 0 512 512" xml:space="preserve" class=""><g><g xmlns="http://www.w3.org/2000/svg"><path d="m271 512v-182.689c83.977-7.604 150-78.387 150-164.311 0-90.981-74.019-165-165-165s-165 74.019-165 165c0 85.924 66.023 156.707 150 164.311v182.689zm-15-482c74.439 0 135 60.561 135 135 0 21.288-4.96 41.438-13.775 59.364l-81.184-51.662c-8.295-15.486-25.201-19.564-36.538-22.287-16.601-3.987-18.503-5.572-18.503-15.415 0-8.271 6.729-15 15-15s15 6.729 15 15h30c0-19.555-12.541-36.228-30-42.42v-17.58h-30v17.58c-12.825 4.549-22.988 14.755-27.483 27.605l-62.597-39.834c24.767-30.685 62.667-50.351 105.08-50.351zm-135 135c0-21.288 4.96-41.438 13.775-59.364l81.184 51.662c8.295 15.486 25.201 19.564 36.538 22.287 16.601 3.987 18.503 5.572 18.503 15.415 0 8.271-6.729 15-15 15s-15-6.729-15-15h-30c0 19.555 12.541 36.228 30 42.42v17.58h30v-17.58c12.825-4.549 22.988-14.755 27.483-27.605l62.597 39.835c-24.767 30.684-62.667 50.35-105.08 50.35-74.439 0-135-60.561-135-135z" fill="#976107" data-original="#000000" style=""/></g></g></svg>
