<?xml version="1.0"?>
<svg xmlns="http://www.w3.org/2000/svg" viewBox="0 0 64 64" width="512px" height="512px" class=""><g><g id="hand-Food-hotel_service-room_service-hotel" data-name="hand-Food-hotel service-room service-hotel"><path d="M47.5,53H38.24a4.5,4.5,0,0,0-3.74-7H28.13L17.26,43.04a1,1,0,0,0-.42-.03L12,43.82V43a1,1,0,0,0-1-1H3a1,1,0,0,0-1,1V61a1,1,0,0,0,1,1h8a1,1,0,0,0,1-1V59.52l5.61,2.4A1.006,1.006,0,0,0,18,62H47.5a4.5,4.5,0,0,0,0-9ZM10,60H4V44h6Zm37.5,0H18.21L12,57.34V45.85l4.95-.83,10.79,2.94A.746.746,0,0,0,28,48h6.5a2.5,2.5,0,0,1,0,5H25v2H47.5a2.5,2.5,0,0,1,0,5Z" data-original="#000000" class="active-path" data-old_color="#000000" fill="#DD3434"/><path d="M61,32H58.97A27.026,27.026,0,0,0,34.77,6.14,2.9,2.9,0,0,0,35,5a3,3,0,0,0-6,0,2.9,2.9,0,0,0,.23,1.14A27.026,27.026,0,0,0,5.03,32H3a1,1,0,0,0-1,1v3a3.009,3.009,0,0,0,3,3H59a3.009,3.009,0,0,0,3-3V33A1,1,0,0,0,61,32ZM32,4a1,1,0,1,1-1,1A1,1,0,0,1,32,4Zm0,4A25.019,25.019,0,0,1,56.97,32H7.03A25.019,25.019,0,0,1,32,8ZM60,36a1,1,0,0,1-1,1H5a1,1,0,0,1-1-1V34H60Z" data-original="#000000" class="active-path" data-old_color="#000000" fill="#DD3434"/><circle cx="7" cy="47" r="2" data-original="#000000" class="active-path" data-old_color="#000000" fill="#DD3434"/></g></g> </svg>
